<?xml version="1.0" standalone="no"?>
<!DOCTYPE svg PUBLIC "-//W3C//DTD SVG 20010904//EN"
 "http://www.w3.org/TR/2001/REC-SVG-20010904/DTD/svg10.dtd">
<svg version="1.0" xmlns="http://www.w3.org/2000/svg"
 width="2268.000000pt" height="1276.000000pt" viewBox="0 0 2268.000000 1276.000000"
 preserveAspectRatio="xMidYMid meet">

<g transform="translate(0.000000,1276.000000) scale(0.100000,-0.100000)"
fill="#000000" stroke="none">
<path d="M0 7399 c0 -2948 3 -5358 7 -5356 5 3 373 217 818 477 446 261 816
473 823 473 6 0 12 4 12 8 0 9 55 40 66 38 4 0 10 4 14 10 3 6 16 13 28 16 16
3 19 0 15 -12 -4 -11 -2 -14 5 -9 8 5 12 0 12 -13 0 -12 4 -21 10 -21 5 0 7
-6 4 -14 -6 -17 24 -35 46 -29 12 4 13 3 1 -5 -16 -11 -7 -67 10 -57 7 5 6 12
-2 21 -10 12 -9 13 6 7 15 -5 17 -3 12 11 -4 9 -3 15 2 11 5 -3 23 12 40 32
23 28 27 39 18 46 -8 6 -4 7 10 4 13 -3 28 2 39 14 71 79 274 135 402 111 l52
-9 0 828 0 829 40 0 40 0 0 150 0 150 155 0 155 0 0 -150 0 -150 35 0 35 0 0
-888 0 -887 48 -18 c55 -19 135 -84 157 -128 22 -41 18 -49 -5 -12 -27 45
-115 108 -177 127 -23 7 -23 7 -23 -109 0 -125 -5 -144 -53 -186 -27 -24 -29
-30 -26 -82 2 -31 1 -57 -3 -57 -5 0 -8 -9 -8 -20 0 -23 10 -22 120 12 85 26
113 42 168 91 81 75 101 156 59 239 l-23 45 81 -47 80 -48 6 176 c4 98 7 427
8 732 l1 555 171 100 c93 55 189 111 212 124 224 127 445 256 457 266 8 7 49
30 90 52 70 38 357 204 463 269 l47 29 0 420 0 420 717 -2 718 -2 3 -458 3
-458 658 -380 c363 -209 657 -383 655 -387 -3 -4 -31 -22 -64 -40 l-60 -33 -1
-150 c-1 -82 -5 -563 -8 -1068 l-6 -917 -53 -31 -53 -30 3 1064 3 1063 -77
-45 -78 -45 -1 -776 c-1 -426 -5 -905 -8 -1064 l-6 -289 -53 -30 -53 -30 7
1063 7 1063 -61 -34 -62 -34 0 -451 c0 -248 -3 -728 -7 -1066 l-6 -615 -55
-27 -55 -27 8 1060 7 1061 -71 -41 -71 -41 -1 -836 c-1 -461 -4 -940 -8 -1067
l-6 -230 -53 -28 -52 -28 6 1062 7 1062 -60 -33 c-32 -18 -67 -38 -76 -45 -15
-11 -17 -106 -23 -1073 l-7 -1062 -55 -30 -55 -30 5 1060 5 1060 -56 -32 c-31
-17 -62 -36 -69 -41 -9 -7 -12 -98 -12 -391 0 -209 -3 -688 -7 -1064 l-6 -682
-55 -30 -55 -30 7 1060 c4 583 4 1060 0 1060 -4 0 -38 -18 -74 -39 l-67 -40
-6 -227 c-4 -125 -7 -603 -7 -1063 l0 -836 -50 -28 c-28 -15 -53 -27 -58 -27
-4 0 -6 475 -4 1056 l3 1056 -43 -27 c-24 -14 -52 -31 -64 -36 -21 -11 -21
-16 -27 -542 -4 -293 -7 -773 -7 -1067 l0 -535 -50 -28 c-28 -15 -53 -27 -56
-27 -3 0 -4 434 -2 963 2 766 0 964 -9 964 -7 0 -13 -4 -13 -9 0 -4 -11 -8
-23 -8 l-24 0 -6 -652 c-4 -359 -7 -800 -7 -980 0 -181 -3 -328 -7 -327 -5 0
-395 224 -868 497 l-860 498 -5 42 -5 42 -475 -276 c-261 -151 -479 -279 -483
-283 -5 -5 -7 -29 -5 -55 l3 -47 450 262 c248 143 465 270 483 281 l32 20 0
-44 0 -43 -481 -279 c-265 -154 -483 -285 -486 -292 -2 -6 -3 -30 -1 -52 l3
-40 480 279 480 279 3 -31 c2 -17 1 -36 -1 -43 -3 -7 -221 -138 -486 -292
l-481 -279 0 -53 c0 -52 0 -52 23 -38 46 29 938 546 943 546 3 0 4 -19 2 -41
l-3 -41 -480 -279 -480 -279 -3 -50 c-2 -27 0 -50 3 -50 3 0 215 122 470 270
256 149 472 273 480 276 12 5 15 -2 15 -33 l0 -40 -470 -273 c-258 -149 -476
-277 -485 -284 -12 -9 -15 -24 -13 -59 l3 -47 440 255 c242 141 459 267 483
281 l42 25 0 -43 0 -43 -479 -277 c-263 -153 -483 -278 -489 -278 -8 0 -12
-20 -12 -56 0 -41 3 -55 12 -51 7 3 227 129 488 281 l475 276 3 -36 c2 -22 -2
-42 -10 -49 -19 -17 -948 -555 -959 -555 -9 0 -13 -93 -4 -102 3 -3 218 118
478 269 260 151 478 277 485 280 10 4 12 -5 10 -37 l-3 -42 -487 -281 c-480
-278 -487 -282 -487 -314 -1 -26 3 -31 19 -30 11 1 20 4 20 8 0 4 51 36 113
72 61 36 179 104 261 151 149 86 166 94 166 76 0 -5 10 -19 23 -30 17 -17 18
-20 4 -14 -12 4 -9 -4 12 -26 16 -19 28 -37 25 -42 -3 -4 0 -8 5 -8 6 0 11 -8
11 -18 0 -10 4 -22 9 -28 9 -8 20 -28 80 -134 13 -25 31 -49 38 -53 7 -5 11
-13 7 -18 -3 -6 2 -17 12 -24 16 -12 281 -14 1749 -15 l1730 0 1220 712 c756
441 1250 736 1300 774 166 130 285 306 301 443 12 107 16 58 5 -72 -11 -147
-39 -236 -100 -331 -49 -75 -172 -197 -258 -254 -44 -30 -1777 -1046 -2148
-1260 -15 -9 831 -11 3468 -12 l3489 0 -80 87 c-332 367 -530 766 -588 1188
-13 98 -15 177 -11 425 4 279 7 317 31 443 105 535 448 1040 996 1467 80 62
177 134 216 161 72 48 84 63 84 102 1 40 37 105 69 121 38 20 120 20 196 0 70
-18 229 -86 264 -113 l25 -19 -51 -31 -51 -32 1 -82 c1 -69 -2 -90 -23 -130
-13 -26 -39 -59 -57 -73 -58 -44 -81 -45 -190 -13 -54 16 -99 29 -100 29 -2 0
-3 -14 -3 -31 0 -21 -4 -28 -12 -23 -10 6 -10 4 0 -7 6 -7 12 -21 12 -30 0
-13 32 -24 158 -53 224 -53 220 -52 227 -89 3 -18 14 -113 25 -212 11 -99 23
-195 26 -213 2 -17 1 -32 -3 -32 -5 0 -62 93 -127 206 -65 113 -125 208 -133
211 -21 8 -72 -17 -93 -47 -11 -16 -23 -48 -26 -72 -6 -42 -2 -49 116 -234
l121 -191 74 -13 c40 -7 77 -15 83 -19 10 -7 44 -260 36 -273 -10 -16 -99 -55
-154 -69 -73 -17 -231 -16 -302 4 -32 8 -58 14 -58 12 0 -2 7 -63 14 -137 21
-186 29 -275 30 -333 0 -27 6 -53 11 -57 6 -5 5 -15 -3 -29 -10 -15 -10 -19
-1 -14 8 5 10 4 5 -4 -4 -6 -9 -68 -12 -138 -4 -145 -21 -408 -30 -471 l-7
-44 39 3 c22 1 49 -3 60 -9 12 -6 24 -8 28 -5 10 11 37 12 30 2 -3 -5 -10 -7
-15 -4 -5 4 -13 -3 -17 -15 -4 -12 -12 -20 -17 -18 -6 2 -11 -202 -13 -539
l-2 -543 3397 0 c2642 0 3394 3 3385 12 -8 8 -12 47 -12 108 0 69 -4 102 -15
116 -8 10 -15 27 -15 37 0 9 -5 17 -11 17 -8 0 -10 17 -7 53 3 28 3 44 1 35
-8 -33 -23 -18 -24 25 -2 88 3 152 12 163 5 6 6 14 2 17 -3 4 -2 7 4 7 6 0 9
10 6 22 -3 13 -2 20 2 16 17 -16 45 95 45 174 0 67 3 81 21 96 12 9 27 23 34
30 8 6 18 12 23 12 6 0 13 7 16 16 4 9 13 14 21 10 8 -3 15 0 16 7 0 7 3 21 5
32 3 11 5 34 6 52 2 35 14 44 90 63 42 11 47 15 50 44 3 31 4 31 63 34 33 2
61 5 63 7 2 1 5 20 8 41 7 63 15 89 23 76 3 -6 35 -14 69 -17 l62 -5 0 29 c0
16 6 32 13 34 9 4 9 6 0 6 -19 1 -16 31 3 31 8 0 25 -5 36 -11 16 -9 23 -8 29
2 6 10 9 3 10 -21 2 -30 3 -31 6 -7 5 30 23 38 23 10 0 -15 2 -16 10 -3 5 8
10 49 11 90 1 41 4 64 6 50 3 -20 14 -28 56 -42 34 -11 56 -13 62 -7 9 9 21
7989 11 7989 -1 0 -963 -561 -2137 -1246 -1174 -686 -2172 -1265 -2219 -1289
-121 -60 -202 -91 -346 -130 -538 -148 -1213 -95 -1656 128 -46 23 -269 150
-495 281 -407 235 -413 238 -413 270 0 31 -6 35 -217 156 -119 69 -222 126
-228 128 -7 2 -277 -162 -599 -363 -323 -201 -591 -366 -595 -368 -3 -1 -289
161 -635 361 -345 199 -631 360 -636 357 -4 -2 -13 -24 -19 -49 -6 -24 -13
-50 -16 -58 -4 -11 35 -39 142 -101 160 -93 184 -111 209 -159 25 -48 15 -136
-20 -182 -15 -20 -31 -36 -36 -36 -5 0 -330 -186 -722 -412 -657 -380 -717
-413 -759 -413 l-47 0 24 -41 24 -41 0 -837 c0 -939 4 -883 -73 -934 -33 -22
-52 -27 -101 -27 l-61 0 -412 240 -413 240 0 323 0 323 -45 -31 c-191 -131
-359 -354 -450 -597 -34 -89 -65 -230 -65 -293 0 -27 -3 -50 -6 -50 -7 0 -246
139 -258 150 -14 13 19 214 50 305 14 44 46 119 70 167 l44 87 -71 42 c-45 27
-81 57 -98 82 l-26 41 -5 435 c-4 390 -7 436 -21 435 -12 -1 -16 10 -18 51 -2
44 1 53 15 51 9 0 19 6 21 14 4 13 3 13 -6 0 -8 -12 -13 -12 -23 -2 -10 10 -8
15 10 28 22 15 22 16 22 336 0 306 1 324 21 365 27 57 87 93 153 93 l48 0 -24
37 c-17 28 -23 53 -23 95 0 92 29 122 220 233 92 53 159 98 157 105 -2 7 -9
56 -17 109 -87 575 230 1156 760 1394 200 90 313 112 560 112 172 -1 200 -3
297 -27 192 -49 337 -116 485 -226 196 -147 356 -355 443 -579 l32 -81 231
141 c128 77 267 162 311 188 l78 47 -38 24 c-22 14 -69 41 -105 61 -81 45
-136 109 -189 218 -22 45 -38 84 -36 86 8 8 184 -102 226 -142 90 -84 235
-182 258 -174 6 2 377 227 825 499 731 444 816 498 821 524 3 16 6 283 6 595
l0 566 171 100 c93 55 189 111 212 124 224 127 445 256 457 266 8 7 49 30 90
52 84 45 349 199 423 245 l47 30 0 429 0 429 -8130 0 -8130 0 0 -5361z m6864
5146 c138 -77 169 -103 203 -173 l27 -57 7 -380 c4 -209 7 -1010 8 -1780 1
-1219 -1 -1408 -14 -1465 -42 -178 -135 -348 -259 -477 -57 -58 -82 -70 -103
-50 -13 14 -11 36 3 30 12 -4 14 308 16 2136 2 1178 -1 2141 -5 2141 -5 0 -5
4 -2 10 6 10 -63 -11 -102 -31 -17 -9 -27 -8 -52 10 -17 12 -31 19 -31 15 0
-4 -11 8 -25 27 -14 19 -28 33 -31 31 -2 -1 -11 1 -20 6 -12 7 -10 11 13 22
71 33 140 50 199 47 52 -2 74 -11 168 -62z m-379 -25 c3 -5 1 -10 -4 -10 -6 0
-11 5 -11 10 0 6 2 10 4 10 3 0 8 -4 11 -10z m109 -99 c-2 -3 -12 3 -22 13
-16 17 -16 18 5 5 12 -7 20 -15 17 -18z m-74 -1423 l0 -63 -258 -153 c-141
-83 -276 -164 -299 -178 l-43 -25 0 63 0 63 298 177 c163 97 298 177 300 178
1 0 2 -28 2 -62z m-1500 -840 c0 -20 -107 -84 -741 -448 -408 -234 -745 -426
-750 -428 -5 -2 -9 7 -9 20 0 20 95 77 743 450 408 234 745 427 750 427 4 1 7
-9 7 -21z m80 -320 l-1 -63 -261 -150 c-144 -82 -283 -162 -310 -178 l-48 -27
0 63 0 63 307 177 c169 97 309 177 310 177 2 0 3 -28 3 -62z m30 -162 c0 -43
-2 -45 -52 -74 -29 -16 -70 -40 -90 -52 l-38 -22 0 49 1 48 82 47 c45 26 85
48 90 48 4 0 7 -20 7 -44z m-3260 -22 c0 -8 -19 -13 -24 -6 -3 5 1 9 9 9 8 0
15 -2 15 -3z m-46 -16 c-3 -5 -8 -6 -12 -4 -13 8 -3 -4306 10 -4321 8 -10 8
-12 -4 -8 -12 5 -14 0 -10 -22 2 -15 1 -25 -3 -21 -5 4 -22 -1 -39 -11 -45
-27 -123 -41 -181 -31 -64 11 -72 14 -182 78 -173 100 -203 164 -203 433 0 93
2 169 5 169 3 0 19 -14 35 -30 16 -17 34 -30 39 -30 5 0 25 -13 43 -30 18 -16
35 -30 39 -30 4 0 4 707 1 1571 -5 1661 -6 1635 40 1774 27 82 92 207 145 283
76 107 224 242 262 239 11 -1 17 -5 15 -9z m13 -38 c-2 -17 -6 -32 -9 -35 -3
-3 -4 5 -3 17 1 13 3 29 4 36 0 6 3 12 6 12 3 0 3 -14 2 -30z m3891 -51 l-3
-61 -117 -69 -118 -68 0 63 0 63 113 66 c61 36 116 66 120 67 4 0 7 -27 5 -61z
m-808 7 l0 -44 -82 -47 c-46 -26 -87 -50 -91 -52 -5 -3 -7 17 -5 43 l3 48 80
48 c44 26 83 47 88 48 4 0 7 -20 7 -44z m-200 -113 l0 -48 -84 -47 c-46 -27
-86 -48 -90 -48 -3 0 -6 20 -6 44 l0 44 88 50 c48 28 88 51 90 51 1 1 2 -20 2
-46z m1483 -70 c-4 -2 -728 -417 -1608 -922 l-1600 -918 -3 45 c-2 24 -2 45 0
47 2 1 725 417 1608 923 l1605 921 3 -47 c2 -26 0 -48 -5 -49z m-743 24 l0
-62 -57 -33 c-32 -17 -86 -48 -120 -67 l-63 -36 0 63 0 63 118 67 c64 38 118
68 120 68 1 0 2 -28 2 -63z m-1122 -9 l-3 -62 -309 -178 c-169 -98 -310 -178
-313 -178 -2 0 -3 28 -1 62 l3 62 305 177 c168 98 309 178 313 178 4 1 7 -27
5 -61z m8425 -60 c16 -28 27 -52 25 -54 -2 -2 -23 8 -46 22 -38 23 -42 29 -42
65 0 35 2 38 18 28 9 -6 30 -33 45 -61z m-8253 -5 l0 -48 -83 -47 c-46 -27
-86 -48 -90 -48 -4 0 -7 19 -7 43 l0 43 88 51 c48 28 88 52 90 52 1 1 2 -20 2
-46z m1130 4 l0 -43 -154 -88 c-85 -47 -176 -98 -201 -113 l-46 -25 3 43 3 44
195 111 c107 62 196 112 198 113 1 1 2 -18 2 -42z m-520 -120 l0 -63 -112 -64
c-62 -36 -119 -66 -125 -68 -9 -3 -13 13 -13 55 l0 59 123 72 c67 39 123 71
125 72 1 0 2 -28 2 -63z m-2520 -249 l0 -63 -258 -153 c-141 -83 -276 -164
-299 -178 l-43 -25 0 63 0 63 298 177 c163 97 298 177 300 178 1 0 2 -28 2
-62z m1230 -16 l0 -47 -81 -48 c-45 -26 -85 -47 -90 -47 -5 0 -9 19 -9 43 l0
42 88 51 c48 29 88 52 90 53 1 1 2 -20 2 -47z m-204 -157 c-3 -10 -126 -85
-168 -103 -5 -2 -8 17 -8 41 l0 45 88 51 87 51 3 -36 c2 -20 1 -42 -2 -49z
m754 6 l0 -59 -102 -60 c-165 -95 -148 -93 -148 -20 l1 63 117 67 c64 37 120
68 125 68 4 0 7 -27 7 -59z m177 -105 c-4 -10 -358 -217 -400 -235 -4 -1 -7
16 -5 40 l3 42 200 114 200 113 3 -31 c2 -17 1 -36 -1 -43z m17690 45 c39 -29
52 -67 39 -120 -21 -88 -116 -120 -185 -61 -28 24 -35 37 -39 78 -5 58 12 92
61 116 36 18 89 12 124 -13z m-18827 -28 l0 -48 -81 -45 c-45 -25 -85 -46 -90
-48 -5 -2 -9 17 -9 41 l0 45 88 51 c48 28 88 51 90 51 1 0 2 -21 2 -47z m670
-72 l0 -58 -82 -48 c-46 -26 -102 -59 -125 -72 l-43 -25 0 64 0 63 118 67 c64
38 120 68 125 68 4 0 7 -26 7 -59z m2230 -10 l0 -39 -190 -111 c-104 -61 -192
-111 -195 -111 -3 0 -5 18 -5 39 l0 39 188 110 c103 61 190 111 195 111 4 1 7
-17 7 -38z m-1160 -70 l0 -38 -186 -109 c-103 -60 -191 -111 -196 -113 -5 -1
-8 16 -6 39 l3 42 185 109 c102 60 188 109 193 109 4 0 7 -17 7 -39z m-1360
-74 l0 -63 -72 -42 c-40 -23 -97 -55 -125 -72 l-53 -30 0 62 0 63 123 72 c67
40 123 72 125 73 1 0 2 -28 2 -63z m1518 -19 l-3 -62 -113 -68 c-62 -37 -115
-68 -118 -68 -3 0 -4 28 -2 62 l3 62 110 67 c61 37 114 68 118 68 4 1 7 -27 5
-61z m-1198 10 l0 -43 -199 -112 c-109 -62 -201 -113 -205 -113 -3 0 -6 17 -6
39 l0 38 203 116 c111 64 203 116 205 116 1 1 2 -18 2 -41z m2078 -100 l-3
-62 -70 -41 c-38 -23 -91 -54 -117 -69 l-48 -28 0 64 1 63 112 67 c62 36 116
67 120 67 4 1 7 -27 5 -61z m-298 3 l0 -38 -190 -112 c-105 -61 -192 -111
-195 -111 -3 0 -5 18 -5 39 l0 39 188 111 c103 61 190 110 195 111 4 0 7 -17
7 -39z m-2390 -53 l0 -63 -118 -67 c-65 -38 -121 -68 -125 -68 -4 0 -7 26 -7
59 l0 58 123 72 c67 39 123 71 125 71 1 0 2 -28 2 -62z m1530 -17 l0 -60 -112
-67 c-62 -37 -116 -69 -120 -71 -5 -2 -8 24 -8 59 l1 63 112 67 c61 37 115 67
120 68 4 0 7 -27 7 -59z m-300 1 l0 -38 -187 -109 c-102 -61 -190 -112 -195
-114 -5 -1 -8 16 -6 39 l3 43 185 108 c102 60 188 109 193 109 4 0 7 -17 7
-38z m1180 -91 l0 -60 -97 -57 c-54 -31 -108 -64 -120 -72 l-23 -14 0 63 0 64
113 67 c61 37 115 67 120 67 4 1 7 -26 7 -58z m-2268 -43 c-5 -5 -96 -58 -201
-118 l-191 -108 0 42 0 42 198 112 197 112 3 -36 c2 -20 -1 -41 -6 -46z m1108
-27 l0 -59 -102 -60 c-146 -86 -138 -85 -138 -15 l0 58 113 68 c61 37 115 67
120 67 4 0 7 -27 7 -59z m1974 0 c3 -5 -2 -15 -12 -22 -15 -12 -16 -12 -5 2 7
9 10 19 6 22 -3 4 -4 7 0 7 3 0 8 -4 11 -9z m-1314 -65 l0 -45 -84 -50 c-46
-28 -87 -51 -90 -51 -3 0 -6 20 -6 44 l0 44 88 51 c48 28 88 51 90 51 1 0 2
-20 2 -44z m200 -48 l0 -63 -296 -175 c-162 -96 -299 -177 -305 -179 -6 -2 -9
21 -7 59 l3 62 300 179 c165 98 301 179 303 179 1 0 2 -28 2 -62z m-1120 -37
l0 -60 -112 -67 c-62 -37 -116 -69 -120 -71 -5 -2 -8 24 -8 59 l1 63 112 67
c61 37 115 67 120 68 4 0 7 -27 7 -59z m-340 -10 l0 -39 -192 -113 c-106 -61
-197 -114 -201 -116 -5 -3 -7 14 -5 38 l3 43 190 112 c105 62 193 113 198 113
4 1 7 -17 7 -38z m1060 -26 l0 -44 -85 -51 c-47 -27 -88 -50 -90 -50 -3 0 -5
20 -5 44 l0 44 83 50 c45 28 85 51 90 51 4 1 7 -19 7 -44z m-200 -119 l0 -43
-86 -52 c-47 -28 -87 -51 -90 -51 -2 0 -4 20 -4 44 l0 45 83 50 c45 28 85 51
90 51 4 0 7 -20 7 -44z m-870 -49 l0 -63 -115 -67 c-63 -37 -117 -67 -120 -67
-3 0 -5 26 -5 59 l0 58 118 71 c64 39 118 71 120 72 1 0 2 -28 2 -63z m-442
-102 c-14 -13 -375 -225 -383 -225 -3 0 -5 18 -5 39 l0 39 198 116 197 116 3
-37 c2 -21 -2 -41 -10 -48z m1112 31 l0 -44 -80 -46 c-43 -25 -82 -46 -85 -46
-3 0 -5 19 -5 43 0 42 0 42 78 89 42 26 80 47 85 48 4 0 7 -20 7 -44z m-950
-88 l-1 -63 -111 -65 c-62 -36 -116 -67 -121 -69 -4 -1 -7 25 -5 60 l3 62 115
69 c63 37 116 68 118 68 1 0 2 -28 2 -62z m750 -31 c0 -42 0 -42 -79 -90 -44
-26 -82 -47 -85 -47 -3 0 -6 20 -6 44 l0 44 78 46 c42 25 80 46 85 46 4 0 7
-19 7 -43z m-1030 -126 l0 -60 -109 -65 c-60 -36 -112 -66 -115 -66 -3 0 -6
27 -6 60 l0 59 108 65 c59 35 110 65 115 65 4 1 7 -26 7 -58z m830 12 l0 -48
-77 -45 c-42 -25 -81 -46 -85 -48 -4 -2 -8 17 -8 42 l0 45 83 50 c45 27 83 50
85 50 1 1 2 -20 2 -46z m-1130 -12 l0 -38 -186 -109 c-103 -60 -191 -111 -196
-113 -5 -1 -8 16 -6 39 l3 42 185 109 c102 60 188 109 193 109 4 0 7 -17 7
-39z m880 -106 c0 -49 2 -47 -123 -120 l-48 -28 3 49 3 48 80 48 c44 26 81 47
83 48 1 0 2 -20 2 -45z m-860 -54 l0 -58 -111 -67 c-61 -36 -113 -66 -115 -66
-3 0 -4 28 -2 62 l3 62 105 63 c58 34 108 63 113 63 4 0 7 -26 7 -59z m660
-66 c0 -49 2 -47 -123 -120 l-48 -28 3 49 3 48 80 48 c44 26 81 48 83 48 1 0
2 -20 2 -45z m-920 -84 l0 -60 -112 -67 c-62 -37 -116 -69 -120 -71 -5 -2 -8
24 -8 59 l0 63 113 67 c61 36 115 67 120 67 4 1 7 -26 7 -58z m720 -35 c0 -44
-1 -45 -62 -82 -35 -21 -73 -44 -85 -52 -23 -14 -23 -14 -23 34 l0 49 78 47
c42 25 80 47 85 47 4 1 7 -19 7 -43z m1334 3 c57 -45 116 -117 148 -178 32
-63 33 -65 33 -209 l0 -144 -262 -152 -262 -151 -1 -112 0 -112 -72 -15 c-302
-65 -632 -39 -893 71 -88 36 -231 131 -225 148 2 9 1486 873 1501 874 4 1 18
-9 33 -20z m-1536 -125 l-3 -46 -82 -48 -83 -49 0 47 0 47 78 47 c42 25 81 47
85 47 4 1 7 -20 5 -45z m292 -8 l0 -45 -84 -50 c-46 -28 -87 -51 -90 -51 -3 0
-6 20 -6 44 l0 44 83 50 c45 28 85 51 90 51 4 1 7 -19 7 -43z m-490 -110 l0
-44 -78 -46 c-43 -25 -82 -46 -85 -46 -4 0 -7 19 -7 43 0 42 0 42 78 89 42 26
80 47 85 48 4 0 7 -20 7 -44z m290 -10 l0 -43 -85 -51 -85 -51 0 47 0 48 78
46 c42 26 80 47 85 47 4 1 7 -19 7 -43z m-490 -110 l0 -43 -80 -47 c-44 -25
-82 -46 -85 -46 -3 0 -5 20 -5 44 l0 44 78 46 c42 25 80 45 85 46 4 0 7 -20 7
-44z m9620 -119 l0 -64 -543 -311 c-298 -171 -550 -314 -560 -317 -15 -6 -17
0 -17 56 l1 64 552 316 c304 174 555 317 560 318 4 1 7 -28 7 -62z m-9810 9
l0 -45 -84 -50 c-46 -28 -87 -51 -90 -51 -3 0 -6 20 -6 44 l0 44 83 50 c45 28
85 51 90 51 4 1 7 -19 7 -43z m18979 -105 c25 -35 26 -49 5 -79 -22 -32 -58
-44 -91 -31 -34 13 -43 26 -43 64 1 51 17 63 97 74 6 0 21 -12 32 -28z m-2789
-506 c17 -9 30 -19 31 -23 0 -4 2 -19 4 -33 8 -59 -93 -100 -133 -55 -13 14
-13 17 -2 11 9 -5 7 1 -5 14 -21 24 -21 27 -3 49 6 6 7 12 3 12 -5 0 2 9 15
20 28 24 51 25 90 5z m-12025 -380 c17 -118 130 -279 276 -391 71 -54 2850
-1661 2969 -1716 115 -53 315 -113 462 -139 242 -42 558 -43 777 -4 47 8 86
14 87 12 1 -1 -56 -35 -127 -76 -105 -61 -129 -79 -129 -97 0 -21 -6 -23 -77
-30 -103 -9 -352 2 -483 21 -190 29 -364 79 -515 150 -134 62 -2899 1661
-2978 1722 -137 105 -238 245 -273 378 -15 55 -19 260 -5 235 5 -8 12 -37 16
-65z m8195 -94 c-5 -51 -10 -94 -12 -95 -2 -2 -32 -20 -67 -40 l-64 -37 29 34
c34 37 100 167 109 211 11 55 14 20 5 -73z m-2764 30 c114 -80 227 -208 319
-360 l38 -64 -24 -18 c-13 -10 -32 -21 -41 -25 -15 -4 -18 -17 -18 -70 0 -73
-5 -72 84 -17 21 14 42 21 46 16 27 -29 80 -251 80 -333 l-1 -55 -121 -70
c-67 -38 -126 -71 -130 -73 -4 -2 -8 18 -9 45 0 26 -8 84 -18 128 l-16 80 97
58 c98 57 98 58 98 97 0 22 -2 40 -4 40 -2 0 -50 -27 -107 -60 -56 -34 -105
-57 -109 -53 -4 4 -10 17 -14 28 -5 16 2 25 29 39 34 19 35 21 35 78 0 32 -4
58 -10 58 -6 0 -31 -13 -57 -29 l-47 -30 -26 47 c-86 157 -243 334 -366 412
l-44 27 128 76 c70 42 130 76 133 76 3 1 37 -21 75 -48z m-10723 -231 c-3 -12
-8 -19 -11 -16 -5 6 5 36 12 36 2 0 2 -9 -1 -20z m13389 -72 c-40 -58 -154
-166 -227 -215 -55 -37 -2698 -1575 -2845 -1655 -36 -20 -106 -52 -155 -72
-94 -37 -319 -99 -342 -94 -8 2 83 59 202 128 141 81 215 130 215 141 0 9 18
24 43 35 23 10 59 29 81 42 22 13 41 20 45 15 3 -6 679 379 1501 853 822 475
1499 864 1503 864 4 0 -5 -19 -21 -42z m-13392 -3 c-7 -8 -17 -15 -23 -15 -6
0 -2 7 9 15 25 19 30 19 14 0z m16373 -523 l137 -57 0 -247 0 -248 265 0 265
0 -5 -22 c-8 -37 -85 -518 -85 -533 0 -8 8 -16 18 -19 16 -5 92 -138 92 -161
0 -5 128 -83 284 -173 156 -90 297 -177 312 -193 33 -35 38 -90 12 -131 -13
-20 -302 -194 -862 -517 -391 -226 -402 -231 -464 -242 -124 -22 -211 1 -372
99 -25 15 -40 18 -50 12 -10 -7 -11 -10 -2 -10 6 0 12 -7 12 -15 0 -8 -6 -15
-12 -15 -9 0 -8 -4 2 -11 38 -27 -52 5 -138 49 -110 55 -219 142 -288 229 -41
52 -70 75 -179 139 -71 42 -136 77 -142 77 -7 0 -13 4 -13 8 0 5 -7 6 -17 2
-14 -5 -13 -8 5 -14 12 -5 22 -14 22 -20 0 -8 -5 -7 -17 2 -17 13 -17 12 -2
-6 9 -11 17 -33 17 -48 0 -16 8 -37 18 -47 11 -10 192 -118 404 -240 212 -122
388 -226 391 -232 3 -5 8 -9 10 -8 16 6 40 -16 36 -31 -3 -11 -1 -22 4 -25 11
-6 12 -171 2 -177 -5 -2 -3 -2 4 -1 6 2 14 -4 17 -13 5 -12 9 -13 21 -3 8 7
15 9 16 4 0 -5 2 -17 4 -27 3 -14 0 -16 -9 -8 -7 6 -16 8 -19 4 -4 -3 -7 -1
-7 6 0 7 -5 9 -12 5 -6 -4 -8 -3 -5 3 4 6 -3 13 -16 15 -24 5 -1502 856 -1553
894 -42 32 -60 91 -41 136 8 18 25 43 38 54 13 12 213 131 444 264 231 134
428 250 437 258 10 8 36 49 58 90 l41 75 -51 251 c-27 138 -50 254 -50 259 0
4 128 7 285 7 l285 0 2 251 3 250 140 59 c77 33 147 57 155 54 8 -2 77 -30
153 -62z m2285 -15 c2 -12 -3 -17 -17 -17 -12 0 -21 6 -21 13 0 31 32 34 38 4z
m-19838 -74 c31 -14 43 -27 55 -58 23 -64 15 -103 -31 -142 -34 -30 -45 -34
-80 -30 -80 8 -136 80 -118 152 8 33 57 82 87 88 40 8 47 7 87 -10z m20085
-715 c10 -40 27 -94 39 -120 l22 -46 -20 -28 -20 -27 27 5 c27 5 27 4 27 -48
0 -52 1 -54 45 -80 25 -14 45 -27 45 -29 0 -1 20 -211 45 -466 25 -255 45
-474 45 -486 0 -18 -12 -25 -77 -46 -116 -37 -161 -46 -270 -53 -116 -8 -212
10 -302 56 l-58 29 9 63 c4 35 9 67 11 71 1 4 58 38 127 75 l125 67 73 224
c83 252 85 270 27 328 -31 31 -39 34 -81 31 l-47 -3 -68 -245 c-64 -229 -71
-247 -101 -272 -18 -14 -33 -26 -34 -25 -4 5 74 596 80 605 3 6 22 16 41 22
31 10 34 15 37 58 3 40 7 47 28 53 14 4 19 7 12 8 -24 2 -84 54 -110 96 -21
33 -26 52 -26 111 -1 41 5 81 12 96 13 24 16 24 70 16 78 -13 187 1 248 31 1
1 10 -32 19 -71z m-18873 -850 c-9 -9 -9 -15 1 -27 8 -12 6 -11 -9 2 -11 9
-24 14 -29 10 -4 -5 -5 -2 -1 5 4 7 11 10 16 7 5 -3 11 -1 15 5 3 5 9 10 13
10 3 0 1 -5 -6 -12z m48 -10 c0 -6 -6 -5 -15 2 -8 7 -15 14 -15 16 0 2 7 1 15
-2 8 -4 15 -11 15 -16z m13987 7 c73 -5 78 -84 6 -85 -13 0 -23 -4 -23 -9 0
-5 -10 -13 -21 -16 -29 -10 -39 9 -39 73 0 49 2 53 21 47 11 -4 37 -8 56 -10z
m-13967 -56 c0 -4 -6 -9 -13 -12 -8 -3 -14 0 -14 7 0 7 6 13 14 13 7 0 13 -4
13 -8z m-20 -59 c-6 -10 -15 -22 -21 -26 -6 -3 -4 5 5 18 9 14 13 28 9 33 -5
4 -2 5 5 1 9 -5 9 -13 2 -26z m18005 -660 c-8 -16 -30 -40 -47 -53 -36 -27
-404 -240 -429 -250 -12 -4 -16 2 -17 24 0 16 3 31 9 34 5 3 6 -1 3 -9 -3 -9
-2 -16 4 -16 6 0 9 8 7 18 -1 9 -7 16 -13 15 -6 -2 -10 10 -8 25 1 15 7 26 14
25 7 -2 9 4 5 14 -4 11 -8 13 -11 5 -2 -7 -8 -12 -14 -12 -6 0 -33 -13 -59
-30 l-49 -30 0 123 0 122 70 40 c65 37 74 48 73 83 -1 7 4 11 11 9 6 -3 10
-10 8 -16 -1 -7 2 -10 7 -6 14 8 2 35 -16 35 -12 0 -12 3 1 21 8 12 12 28 9
37 -4 9 -2 13 4 9 5 -3 9 3 9 14 -1 16 40 44 194 134 188 110 237 147 242 183
2 9 4 -103 5 -251 3 -223 1 -272 -12 -297z m-16798 478 c-3 -8 -6 -5 -6 6 -1
11 2 17 5 13 3 -3 4 -12 1 -19z m12683 -117 c3 -4 17 -12 33 -18 29 -13 38
-55 15 -69 -20 -13 -128 -15 -128 -3 0 6 7 35 16 65 14 51 17 53 37 42 12 -6
24 -14 27 -17z m4238 -33 c13 -22 13 -29 3 -42 -25 -30 -81 -14 -81 23 0 20
31 52 48 49 7 -2 21 -15 30 -30z m-3535 -68 l107 -65 0 -127 0 -127 -120 72
-120 72 0 123 c0 94 3 123 13 120 6 -2 60 -32 120 -68z m282 -167 l114 -68 1
-128 0 -128 -23 13 c-12 7 -66 39 -120 72 l-97 58 0 124 c0 68 3 124 6 124 3
0 57 -30 119 -67z m300 -184 l115 -71 0 -124 c0 -68 -2 -124 -5 -124 -2 0 -55
31 -117 68 l-113 68 -3 127 c-1 70 0 127 2 127 3 0 57 -32 121 -71z m2165 -68
l0 -118 -111 -67 c-61 -36 -112 -66 -115 -66 -2 0 -4 53 -4 118 l0 118 108 66
c59 37 110 67 115 67 4 1 7 -52 7 -118z m-1857 -116 l97 -57 0 -128 0 -128
-120 71 -119 72 -1 129 0 128 23 -14 c12 -8 66 -41 120 -73z m505 57 c2 -9 4
-25 5 -34 1 -9 4 -15 8 -12 4 2 9 -3 13 -11 3 -8 1 -17 -4 -20 -6 -4 -10 -28
-10 -55 0 -48 -13 -73 -23 -46 -5 12 -10 148 -8 195 1 18 14 6 19 -17z m19 -4
c2 -17 0 -19 -7 -8 -5 8 -6 18 -4 22 8 12 10 10 11 -14z m1043 -115 l0 -118
-102 -60 c-56 -33 -105 -61 -110 -63 -4 -2 -8 50 -8 115 l0 118 103 62 c56 34
105 62 110 63 4 0 7 -53 7 -117z m-979 80 c12 -16 12 -17 -2 -6 -9 7 -20 9
-24 5 -5 -4 -5 -1 -1 6 9 16 11 15 27 -5z m-309 -179 c60 -36 112 -72 114 -78
3 -7 3 -65 2 -129 l-3 -117 -117 71 -118 70 0 125 c0 68 3 124 6 124 3 0 55
-30 116 -66z m266 31 c-3 -3 -9 2 -12 12 -6 14 -5 15 5 6 7 -7 10 -15 7 -18z
m718 -220 c-3 -9 -129 -88 -208 -132 -5 -2 -8 50 -8 116 l0 120 108 65 107 64
3 -111 c1 -61 1 -116 -2 -122z m-3563 -338 c-8 -15 -23 5 -19 26 3 12 5 27 6
32 1 6 6 -3 9 -20 4 -16 6 -33 4 -38z m7404 31 c-3 -8 -6 -5 -6 6 -1 11 2 17
5 13 3 -3 4 -12 1 -19z m-7412 -77 c3 -5 2 -12 -3 -15 -5 -3 -9 1 -9 9 0 17 3
19 12 6z m-8 -77 c-3 -3 -12 -4 -19 -1 -8 3 -5 6 6 6 11 1 17 -2 13 -5z m34
-28 c-9 -11 -9 -15 1 -19 8 -3 8 -6 2 -6 -6 -1 -18 7 -25 16 -8 10 -9 14 -2
10 6 -4 14 -3 18 3 3 5 9 10 12 10 3 0 0 -6 -6 -14z m-41 -7 c0 -5 -5 -7 -11
-3 -7 4 -10 1 -7 -7 3 -8 11 -13 17 -11 7 1 10 -2 6 -7 -3 -6 -12 -8 -20 -4
-20 7 -19 43 0 43 8 0 15 -5 15 -11z m50 -114 c0 -2 -10 -9 -22 -15 -22 -11
-22 -10 -4 4 21 17 26 19 26 11z m-11757 -643 c15 -16 15 -19 2 -19 -8 0 -13
3 -10 5 3 3 0 11 -6 19 -17 20 -5 16 14 -5z m50 -7 c-3 -9 -8 -14 -10 -11 -3
3 -2 9 2 15 9 16 15 13 8 -4z m-106 -10 c0 -8 -3 -13 -5 -10 -3 3 -12 -1 -21
-7 -10 -8 -9 -4 3 10 23 26 23 26 23 7z m33 1 c0 -3 -4 -8 -10 -11 -5 -3 -10
-1 -10 4 0 6 5 11 10 11 6 0 10 -2 10 -4z m-3 -72 c-3 -3 -14 -1 -24 6 -16 10
-16 11 0 6 9 -3 17 -1 17 4 0 6 -5 10 -11 10 -5 0 -7 5 -3 12 5 8 11 5 17 -10
6 -12 8 -25 4 -28z"/>
<path d="M1769 9613 c-13 -16 -12 -17 4 -4 16 13 21 21 13 21 -2 0 -10 -8 -17
-17z"/>
<path d="M17263 4185 c0 -8 4 -12 9 -9 5 3 6 10 3 15 -9 13 -12 11 -12 -6z"/>
<path d="M17702 12313 l3 -446 515 -298 c283 -164 518 -298 523 -299 4 0 7
201 7 448 l0 447 242 140 c133 76 257 152 275 168 19 16 37 27 40 23 3 -3 2
-6 -4 -6 -6 0 -9 -9 -6 -20 3 -11 10 -20 15 -20 5 0 6 5 3 10 -3 6 -1 10 5 10
6 0 8 5 4 12 -4 6 -3 8 4 4 6 -3 31 7 55 24 25 17 59 33 76 36 l31 7 0 103 0
104 -895 0 -895 0 2 -447z"/>
<path d="M19950 12680 c0 -64 3 -81 18 -90 16 -11 16 -11 0 -6 -13 4 -18 0
-18 -14 0 -13 14 -25 44 -38 51 -23 121 -84 142 -123 21 -42 17 -46 -9 -8 -23
35 -138 119 -163 119 -11 0 -14 -21 -14 -105 0 -103 -1 -105 -31 -140 -17 -19
-43 -42 -58 -51 -25 -15 -29 -33 -22 -106 1 -4 10 -5 20 -3 14 3 18 -1 14 -12
-5 -12 -7 -12 -14 -1 -7 10 -9 11 -9 0 0 -7 -4 -10 -10 -7 -5 3 -10 1 -10 -6
0 -8 -5 -7 -17 2 -10 8 -14 9 -10 2 12 -20 -77 -27 -172 -14 -106 15 -254 65
-272 93 -8 13 -36 0 -36 -18 0 -19 102 -67 192 -90 97 -25 294 -25 390 0 103
27 168 59 221 108 100 91 108 184 27 298 l-18 25 25 -16 c14 -8 141 -82 283
-164 141 -81 257 -151 257 -154 -1 -3 -219 -132 -485 -286 l-485 -280 0 -58
c0 -32 3 -56 8 -54 8 5 849 493 920 534 l42 25 0 -44 -1 -43 -484 -280 -485
-280 0 -53 c0 -52 0 -52 23 -38 46 29 939 546 943 546 3 0 4 -19 2 -41 l-3
-42 -480 -279 -480 -279 -3 -49 c-2 -28 0 -50 3 -50 3 0 216 122 472 271 256
149 471 273 479 276 11 4 14 -5 14 -35 l0 -39 -471 -274 c-259 -150 -478 -278
-486 -284 -10 -7 -13 -25 -11 -58 l3 -48 450 262 c248 143 465 270 483 281
l32 20 0 -44 0 -43 -481 -279 c-265 -154 -483 -285 -486 -292 -2 -6 -3 -30 -1
-52 l3 -40 480 279 480 279 3 -31 c2 -17 1 -36 -1 -43 -3 -7 -221 -138 -486
-292 l-481 -279 0 -53 c0 -52 0 -52 23 -38 46 29 938 546 943 546 3 0 4 -19 2
-41 l-3 -41 -480 -279 -480 -279 -3 -50 c-2 -27 0 -50 3 -50 3 0 215 122 470
270 256 149 472 273 480 276 12 5 15 -2 15 -33 l0 -40 -470 -273 c-258 -149
-476 -277 -485 -284 -12 -9 -15 -24 -13 -59 l3 -47 440 255 c242 141 459 267
483 281 l42 25 0 -43 0 -43 -479 -277 c-263 -153 -483 -278 -489 -278 -8 0
-12 -20 -12 -56 0 -41 3 -55 13 -51 6 3 226 129 487 281 l475 276 3 -36 c2
-22 -2 -42 -10 -49 -19 -17 -948 -555 -959 -555 -9 0 -13 -93 -4 -102 3 -3
218 118 478 269 260 151 478 277 485 280 10 4 12 -5 10 -37 l-3 -42 -487 -281
c-483 -280 -487 -282 -487 -314 -1 -18 -4 -33 -8 -33 -5 0 -154 85 -332 188
l-325 188 3 532 3 532 -66 -38 -66 -37 -1 -150 c-1 -82 -5 -563 -8 -1068 l-6
-917 -53 -31 -53 -30 3 1064 3 1063 -77 -45 -78 -45 -1 -776 c-1 -426 -5 -905
-8 -1064 l-6 -289 -53 -30 -53 -30 7 1063 7 1063 -61 -34 -62 -34 0 -451 c0
-248 -3 -728 -7 -1066 l-6 -615 -55 -27 -55 -27 8 1060 7 1061 -71 -41 -71
-41 -1 -841 c-1 -463 -4 -943 -8 -1067 l-6 -225 -53 -28 -52 -28 7 1062 6
1062 -60 -33 c-32 -18 -67 -38 -76 -45 -15 -11 -17 -106 -23 -1073 l-7 -1062
-55 -30 -55 -30 5 1060 5 1060 -56 -32 c-31 -17 -62 -36 -68 -41 -10 -7 -13
-98 -13 -391 0 -209 -3 -688 -7 -1064 l-6 -682 -55 -30 -55 -30 7 1060 c4 583
4 1060 0 1060 -4 0 -38 -18 -74 -39 l-67 -40 -6 -227 c-4 -125 -7 -603 -7
-1063 l0 -836 -50 -27 c-28 -16 -53 -28 -58 -28 -4 0 -6 475 -4 1056 l3 1056
-43 -27 c-24 -14 -52 -31 -64 -36 -21 -11 -21 -16 -27 -542 -4 -293 -7 -773
-7 -1067 l0 -535 -50 -27 c-28 -16 -53 -28 -56 -28 -4 0 -5 477 -2 1059 l4
1059 -36 -21 -37 -21 -6 -779 c-4 -429 -7 -908 -7 -1064 0 -155 -2 -283 -5
-283 -3 0 -240 135 -527 301 -393 227 -525 299 -538 292 -35 -17 -820 -508
-820 -513 0 -11 1219 -708 1309 -748 543 -243 1333 -247 1881 -9 53 23 1052
600 2255 1302 l2160 1261 3 1567 2 1567 -1365 0 -1365 0 0 -80z m207 -342 c-3
-8 -6 -5 -6 6 -1 11 2 17 5 13 3 -3 4 -12 1 -19z"/>
<path d="M19279 12213 c-13 -17 -13 -17 5 -3 18 13 19 13 14 0 -3 -8 -2 -23 1
-32 5 -14 9 -14 23 -4 16 12 16 14 -6 35 -22 21 -24 21 -37 4z"/>
<path d="M18380 11167 c-13 -27 -95 -79 -595 -370 -319 -185 -609 -352 -645
-370 -60 -30 -71 -32 -165 -31 -70 0 -111 5 -138 17 -21 9 -202 111 -401 226
-200 116 -369 211 -377 213 -8 2 -17 7 -21 12 -3 5 -8 -19 -10 -53 l-3 -61
396 -229 c218 -126 413 -234 435 -242 21 -7 77 -13 124 -13 70 0 95 5 140 25
119 55 1216 701 1248 734 30 32 32 39 32 105 0 38 -1 70 -2 70 -2 0 -10 -15
-18 -33z"/>
<path d="M15943 10885 c0 -8 4 -12 9 -9 5 3 6 10 3 15 -9 13 -12 11 -12 -6z"/>
<path d="M15998 10873 c6 -2 12 -9 12 -14 0 -6 -5 -7 -12 -3 -7 5 -8 3 -3 -5
5 -9 11 -9 17 -3 12 12 2 32 -15 31 -9 0 -9 -2 1 -6z"/>
<path d="M10902 8646 c-48 -23 -192 -154 -192 -176 0 -4 36 7 80 26 45 18 126
48 180 65 55 17 100 34 100 38 0 5 -9 20 -20 33 -10 14 -17 27 -15 30 3 2 -14
5 -38 6 -27 1 -60 -6 -95 -22z"/>
<path d="M10952 8535 c-161 -54 -267 -107 -286 -144 -9 -17 -15 -31 -14 -31 2
0 28 7 58 15 91 25 257 45 371 45 l107 0 -31 49 c-18 28 -38 50 -45 50 -7 1
-11 5 -8 10 3 5 -1 12 -10 15 -8 3 -12 10 -9 16 11 17 -26 10 -133 -25z"/>
<path d="M10925 8393 c-64 -7 -153 -24 -214 -41 -57 -15 -66 -21 -79 -52 -17
-40 -28 -200 -18 -254 6 -33 13 -39 64 -62 81 -36 260 -80 381 -94 149 -18
406 -9 429 14 12 12 14 19 5 24 -6 4 -13 14 -15 21 -5 23 -50 71 -65 71 -24 0
-90 38 -124 72 -53 53 -81 127 -79 206 1 37 1 72 0 77 -1 6 -2 13 -1 18 1 7
-224 8 -284 0z"/>
<path d="M10635 7958 c13 -47 80 -169 106 -194 25 -23 38 -27 117 -32 103 -5
276 10 408 38 131 27 259 72 259 90 0 11 -9 14 -35 12 -19 -2 -125 -4 -235 -4
-153 -2 -222 2 -295 16 -103 19 -232 54 -293 81 l-39 16 7 -23z"/>
<path d="M11477 7809 c-142 -56 -344 -90 -545 -92 l-153 -2 33 -28 c91 -76
189 -102 435 -114 l131 -6 74 35 c40 19 96 54 125 78 45 37 50 44 37 57 -23
23 -36 52 -28 65 4 7 3 8 -5 4 -6 -4 -14 0 -17 9 -6 13 -8 14 -15 3 -7 -10 -9
-10 -9 0 0 15 -4 14 -63 -9z"/>
<path d="M11068 7560 c12 -5 60 -12 105 -15 50 -3 72 -2 57 3 -36 13 -191 23
-162 12z"/>
<path d="M6920 4407 c-13 -27 -95 -79 -595 -370 -319 -185 -609 -352 -645
-370 -60 -30 -71 -32 -165 -32 -79 1 -109 5 -145 21 -25 12 -214 119 -420 238
-334 193 -411 231 -370 180 11 -12 10 -13 -4 -8 -12 4 -15 2 -10 -9 3 -10 -2
-18 -16 -22 -25 -8 -21 -31 5 -27 9 2 14 -1 11 -6 -6 -11 769 -462 830 -483
21 -7 77 -13 124 -13 70 0 95 5 140 26 120 55 1216 700 1248 733 30 32 32 39
32 105 0 38 -1 70 -2 70 -2 0 -10 -15 -18 -33z m-2350 -381 c0 -2 -7 -7 -16
-10 -8 -3 -12 -2 -9 4 6 10 25 14 25 6z"/>
<path d="M3190 2333 c-261 -151 -476 -277 -478 -278 -2 -2 -2 -28 0 -58 l3
-56 483 281 482 280 0 54 c0 30 -3 54 -7 54 -5 0 -222 -125 -483 -277z"/>
<path d="M3188 2132 l-478 -277 0 -52 0 -52 108 62 c59 35 277 162 485 282
l377 220 0 47 c0 27 -3 48 -7 48 -5 0 -223 -125 -485 -278z"/>
<path d="M3195 1949 l-480 -280 -3 -49 c-2 -28 0 -50 3 -50 4 0 947 544 963
556 2 1 2 24 0 52 l-3 50 -480 -279z"/>
<path d="M15010 1105 c-7 -9 -10 -18 -6 -22 3 -3 6 -1 6 6 0 7 4 10 8 7 5 -3
9 1 9 9 0 19 -2 19 -17 0z"/>
<path d="M22028 1073 c7 -3 16 -2 19 1 4 3 -2 6 -13 5 -11 0 -14 -3 -6 -6z"/>
<path d="M21781 464 c0 -11 3 -14 6 -6 3 7 2 16 -1 19 -3 4 -6 -2 -5 -13z"/>
</g>
</svg>
